<?xml version="1.0" encoding="UTF-8" standalone="no"?>
<!-- Created with Inkscape (http://www.inkscape.org/) -->

<svg
   xmlns:dc="http://purl.org/dc/elements/1.1/"
   xmlns:cc="http://creativecommons.org/ns#"
   xmlns:rdf="http://www.w3.org/1999/02/22-rdf-syntax-ns#"
   xmlns:svg="http://www.w3.org/2000/svg"
   xmlns="http://www.w3.org/2000/svg"
   xmlns:sodipodi="http://sodipodi.sourceforge.net/DTD/sodipodi-0.dtd"
   xmlns:inkscape="http://www.inkscape.org/namespaces/inkscape"
   version="1.1"
   id="svg2"
   xml:space="preserve"
   width="53.338001"
   height="36.166"
   viewBox="0 0 53.338001 36.166"
   sodipodi:docname="bridge.svg"
   inkscape:version="0.92.1 r15371"><metadata
     id="metadata8"><rdf:RDF><cc:Work
         rdf:about=""><dc:format>image/svg+xml</dc:format><dc:type
           rdf:resource="http://purl.org/dc/dcmitype/StillImage" /><dc:title></dc:title></cc:Work></rdf:RDF></metadata><defs
     id="defs6"><clipPath
       clipPathUnits="userSpaceOnUse"
       id="clipPath18"><path
         d="M 0,27.125 H 40.004 V 0 H 0 Z"
         id="path16"
         inkscape:connector-curvature="0" /></clipPath></defs><sodipodi:namedview
     pagecolor="#ffffff"
     bordercolor="#666666"
     borderopacity="1"
     objecttolerance="10"
     gridtolerance="10"
     guidetolerance="10"
     inkscape:pageopacity="0"
     inkscape:pageshadow="2"
     inkscape:window-width="741"
     inkscape:window-height="480"
     id="namedview4"
     showgrid="false"
     inkscape:zoom="6.5254658"
     inkscape:cx="26.669001"
     inkscape:cy="18.083"
     inkscape:window-x="0"
     inkscape:window-y="0"
     inkscape:window-maximized="0"
     inkscape:current-layer="g10" /><g
     id="g10"
     inkscape:groupmode="layer"
     inkscape:label="Vector Smart Object4"
     transform="matrix(1.3333333,0,0,-1.3333333,0,36.166)"><g
       id="g12"><g
         id="g14"
         clip-path="url(#clipPath18)"><path
           d="M 4.01,25.516 H 7.995 V 23.131 H 4.01 Z m 5.6,0 h 3.985 V 23.131 H 9.61 Z m 5.596,0.002 h 3.985 v -2.385 h -3.985 z m 5.604,-0.002 h 3.985 V 23.131 H 20.81 Z m 5.595,0.002 h 3.989 v -2.384 h -3.989 z m 5.605,-0.002 h 3.985 V 23.131 H 32.01 Z M 29.6,4.826 c -0.395,0 -0.774,-0.02 -1.151,0.004 C 27.796,4.873 27.157,5.002 26.536,5.212 26.024,5.386 25.546,5.621 25.115,5.95 24.729,6.244 24.396,6.247 24.011,5.953 23.317,5.424 22.52,5.14 21.677,4.971 20.057,4.645 18.491,4.811 16.996,5.527 16.743,5.648 16.512,5.818 16.281,5.98 15.94,6.218 15.595,6.245 15.277,5.999 14.573,5.453 13.765,5.155 12.907,4.975 12.082,4.802 11.25,4.757 10.4,4.878 v 0.135 c 0,3.612 -0.001,7.224 0,10.836 0,1.094 0.608,1.983 1.624,2.334 0.262,0.09 0.553,0.135 0.831,0.136 4.762,0.008 9.524,0.006 14.286,0.005 1.081,0 1.971,-0.614 2.319,-1.626 0.09,-0.262 0.134,-0.553 0.134,-0.831 C 29.603,12.234 29.6,8.601 29.6,4.968 Z M 1.977,4.837 C 1.661,4.842 1.345,4.883 1.031,4.87 0.633,4.854 0.331,4.507 0.323,4.104 0.315,3.697 0.6,3.35 0.991,3.299 1.135,3.281 1.282,3.285 1.427,3.269 2.28,3.178 3.129,3.18 3.978,3.321 5.004,3.491 5.983,3.789 6.878,4.331 6.94,4.369 6.982,4.366 7.044,4.33 8.181,3.65 9.428,3.335 10.736,3.227 11.42,3.17 12.1,3.213 12.777,3.322 c 1.027,0.165 2.005,0.466 2.9,1.008 0.062,0.038 0.104,0.037 0.166,0 1.133,-0.678 2.377,-0.992 3.68,-1.102 0.688,-0.059 1.372,-0.016 2.053,0.094 1.031,0.165 2.013,0.468 2.911,1.015 0.061,0.037 0.099,0.023 0.155,-0.006 0.26,-0.14 0.515,-0.292 0.786,-0.405 1.538,-0.645 3.132,-0.866 4.787,-0.628 1.088,0.156 2.125,0.464 3.071,1.038 0.061,0.037 0.1,0.027 0.155,-0.005 0.165,-0.096 0.33,-0.194 0.503,-0.277 1.221,-0.583 2.515,-0.845 3.864,-0.85 0.556,-0.003 1.1,0.084 1.628,0.271 0.565,0.202 0.755,0.862 0.356,1.305 C 39.543,5.056 39.228,5.108 38.879,4.983 38.2,4.74 37.505,4.8 36.8,4.875 v 0.121 c 0,3.625 -10e-4,7.25 0.003,10.874 0.001,0.219 0.022,0.445 0.083,0.654 0.279,0.966 0.914,1.57 1.907,1.749 0.344,0.063 0.705,0.037 1.058,0.051 0.048,0.002 0.096,10e-4 0.142,10e-4 v 4.802 H 37.61 v 2.402 h 2.381 v 1.596 H 0 V 25.524 H 2.392 V 23.125 H 0 v -4.8 c 0.25,0 0.501,0.017 0.749,-0.005 0.276,-0.024 0.562,-0.045 0.82,-0.134 C 2.591,17.835 3.2,16.945 3.2,15.845 3.201,12.224 3.2,8.604 3.2,4.983 V 4.835 C 2.783,4.835 2.38,4.83 1.977,4.837"
           style="fill:#1d1d1b;fill-opacity:1;fill-rule:nonzero;stroke:none"
           id="path20"
           inkscape:connector-curvature="0" /><g
           id="g22"
           transform="translate(39.6938,1.6712)"><path
             d="M 0,0 C -0.248,0.186 -0.516,0.216 -0.801,0.117 -1.086,0.018 -1.377,-0.038 -1.679,-0.052 -2.18,-0.075 -2.676,-0.034 -3.17,0.049 -4.133,0.211 -5.04,0.507 -5.826,1.112 -6.152,1.363 -6.52,1.35 -6.854,1.105 -6.934,1.047 -7.013,0.984 -7.096,0.93 c -0.977,-0.644 -2.075,-0.891 -3.22,-0.977 -0.554,-0.041 -1.105,0.002 -1.654,0.095 -0.962,0.164 -1.869,0.459 -2.656,1.064 -0.325,0.25 -0.693,0.238 -1.027,-0.006 -0.081,-0.059 -0.16,-0.121 -0.243,-0.176 -0.976,-0.644 -2.075,-0.891 -3.219,-0.976 -0.554,-0.042 -1.106,0.001 -1.654,0.094 -0.963,0.164 -1.87,0.459 -2.656,1.064 -0.326,0.25 -0.694,0.236 -1.028,-0.005 -0.155,-0.112 -0.31,-0.227 -0.475,-0.323 -0.923,-0.534 -1.936,-0.756 -2.987,-0.831 -0.697,-0.049 -1.387,0.024 -2.07,0.174 -0.812,0.179 -1.575,0.467 -2.24,0.984 -0.077,0.06 -0.17,0.108 -0.263,0.138 -0.283,0.093 -0.542,0.029 -0.774,-0.15 -0.354,-0.275 -0.741,-0.491 -1.159,-0.652 -1.18,-0.454 -2.398,-0.589 -3.653,-0.457 -0.226,0.024 -0.463,0.038 -0.683,-0.004 -0.394,-0.075 -0.624,-0.418 -0.611,-0.838 0.011,-0.341 0.287,-0.661 0.654,-0.715 0.312,-0.045 0.629,-0.053 0.944,-0.078 0.693,-0.055 1.38,-0.011 2.066,0.097 1.027,0.163 2.004,0.468 2.898,1.011 0.055,0.033 0.089,0.034 0.143,0.001 1.142,-0.692 2.4,-1 3.716,-1.109 0.684,-0.057 1.363,-0.011 2.041,0.097 1.031,0.163 2.011,0.47 2.911,1.013 0.03,0.018 0.089,0.021 0.117,0.004 1.131,-0.687 2.377,-0.997 3.678,-1.111 1.031,-0.09 2.044,0.034 3.042,0.291 0.716,0.184 1.394,0.464 2.021,0.854 2.533,-1.55 6.258,-1.557 8.779,-0.017 0.384,-0.183 0.746,-0.383 1.128,-0.53 1.307,-0.504 2.659,-0.727 4.06,-0.573 0.364,0.039 0.721,0.125 1.052,0.289 C 0.388,-1.077 0.451,-0.337 0,0"
             style="fill:#1d1d1b;fill-opacity:1;fill-rule:nonzero;stroke:none"
             id="path24"
             inkscape:connector-curvature="0" /></g></g></g></g></svg>