<?xml version="1.0" encoding="UTF-8" standalone="no"?>
<!-- Created with Inkscape (http://www.inkscape.org/) -->

<svg
   xmlns:dc="http://purl.org/dc/elements/1.1/"
   xmlns:cc="http://creativecommons.org/ns#"
   xmlns:rdf="http://www.w3.org/1999/02/22-rdf-syntax-ns#"
   xmlns:svg="http://www.w3.org/2000/svg"
   xmlns="http://www.w3.org/2000/svg"
   xmlns:sodipodi="http://sodipodi.sourceforge.net/DTD/sodipodi-0.dtd"
   xmlns:inkscape="http://www.inkscape.org/namespaces/inkscape"
   version="1.1"
   id="svg2"
   xml:space="preserve"
   width="248.55067"
   height="287.50134"
   viewBox="0 0 248.55067 287.50134"
   sodipodi:docname="logo.svg"
   inkscape:version="0.92.1 r15371"><metadata
     id="metadata8"><rdf:RDF><cc:Work
         rdf:about=""><dc:format>image/svg+xml</dc:format><dc:type
           rdf:resource="http://purl.org/dc/dcmitype/StillImage" /><dc:title></dc:title></cc:Work></rdf:RDF></metadata><defs
     id="defs6"><clipPath
       clipPathUnits="userSpaceOnUse"
       id="clipPath18"><path
         d="M 0,215.626 H 186.413 V 0 H 0 Z"
         id="path16"
         inkscape:connector-curvature="0" /></clipPath></defs><sodipodi:namedview
     pagecolor="#ffffff"
     bordercolor="#666666"
     borderopacity="1"
     objecttolerance="10"
     gridtolerance="10"
     guidetolerance="10"
     inkscape:pageopacity="0"
     inkscape:pageshadow="2"
     inkscape:window-width="741"
     inkscape:window-height="480"
     id="namedview4"
     showgrid="false"
     showguides="false"
     inkscape:zoom="0.82086573"
     inkscape:cx="124.27534"
     inkscape:cy="143.75067"
     inkscape:window-x="211"
     inkscape:window-y="298"
     inkscape:window-maximized="0"
     inkscape:current-layer="g10" /><g
     id="g10"
     inkscape:groupmode="layer"
     inkscape:label="Vector Smart Object2"
     transform="matrix(1.3333333,0,0,-1.3333333,0,287.50133)"><g
       id="g12"><g
         id="g14"
         clip-path="url(#clipPath18)"><g
           id="g20"
           transform="translate(134.6319,137.418)"><path
             d="m 0,0 c 0.833,-3.329 1.281,-6.81 1.281,-10.397 0,-23.586 -19.12,-42.706 -42.706,-42.706 -23.586,0 -42.707,19.12 -42.707,42.706 0,3.587 0.448,7.068 1.281,10.397 -4.013,-6.991 -6.319,-15.087 -6.319,-23.727 0,-26.369 21.376,-47.745 47.745,-47.745 26.368,0 47.745,21.376 47.745,47.745 C 6.32,-15.087 4.013,-6.991 0,0"
             style="fill:#63b9e9;fill-opacity:1;fill-rule:nonzero;stroke:none"
             id="path22"
             inkscape:connector-curvature="0" /></g><g
           id="g24"
           transform="translate(60.5518,127.0513)"><path
             d="m 0,0 c 0,18.035 14.62,32.655 32.655,32.655 18.034,0 32.654,-14.62 32.654,-32.655 0,-18.035 -14.62,-32.655 -32.654,-32.655 C 14.62,-32.655 0,-18.035 0,0"
             style="fill:#63b9e9;fill-opacity:1;fill-rule:nonzero;stroke:none"
             id="path26"
             inkscape:connector-curvature="0" /></g><g
           id="g28"
           transform="translate(73.585,177.3518)"><path
             d="m 0,0 c 0.064,-0.134 0.131,-0.266 0.2,-0.398 1.574,-3.042 4.273,-5.409 7.555,-6.517 2.186,-0.737 4.545,-0.6 6.653,-1.594 1.255,-0.592 2.344,-1.486 3.378,-2.436 0.645,-0.592 1.269,-1.206 1.899,-1.781 0.515,0.606 1.043,1.215 1.605,1.785 0.908,0.922 1.908,1.745 3.099,2.295 2.07,0.955 4.368,0.68 6.545,1.209 3.188,0.773 6.092,2.514 7.878,5.182 0.429,0.64 0.791,1.333 1.079,2.079 0.047,0.122 0.099,0.241 0.141,0.366 1.497,4.354 -0.876,7.335 -2.085,10.935 -0.301,0.895 -0.532,1.827 -0.611,2.829 -0.059,0.746 -0.046,1.341 -0.042,1.886 0.005,0.71 -0.008,1.33 -0.222,2.034 -0.129,0.422 -0.328,0.877 -0.642,1.406 -1.272,2.15 -1.712,4.035 -2.135,6.515 -2.124,-2.363 -3.104,-3.775 -2.352,-6.949 0.024,-0.102 0.046,-0.195 0.07,-0.292 0.2,-0.836 0.359,-1.483 0.431,-2.028 0.18,-1.356 -0.169,-2.125 -1.718,-3.874 C 30.59,12.498 30.452,12.354 30.317,12.213 29.663,11.535 29.047,10.949 28.79,9.92 28.583,9.089 29.092,7.616 28.671,6.878 27.174,4.254 25.649,7.12 25.757,8.779 c 0.087,1.334 0.761,2.521 1.275,3.728 0.455,1.068 0.786,2.151 0.467,3.365 -0.11,0.419 -0.284,0.8 -0.493,1.16 -0.443,0.763 -1.064,1.419 -1.704,2.064 -1.063,1.071 -2.165,2.118 -2.537,3.61 -0.62,2.48 1.012,4.919 0.677,7.429 -0.019,0.142 -0.055,0.271 -0.08,0.408 -0.509,2.794 -2.199,4.693 -2.338,7.731 -2.105,-1.248 -4.327,-3.315 -5.125,-5.722 -0.243,-0.733 -0.253,-1.396 -0.14,-2.023 0.359,-1.991 2,-3.601 1.655,-5.825 -0.361,-2.327 -2.721,-3.818 -4.082,-5.643 -0.175,-0.235 -0.336,-0.474 -0.471,-0.722 -0.24,-0.438 -0.397,-0.87 -0.499,-1.3 -0.36,-1.517 0.042,-2.991 0.588,-4.484 0.231,-0.634 0.488,-1.272 0.721,-1.918 0.527,-1.46 2.077,-6.932 -1.558,-5.145 -1.982,0.974 -0.812,4.133 -1.833,5.944 -0.179,0.318 -0.348,0.6 -0.51,0.865 -1.09,1.786 -1.767,2.543 -1.717,4.362 0.014,0.517 0.085,1.118 0.225,1.857 0.009,0.049 0.016,0.097 0.025,0.146 0.504,2.787 0.349,5.272 -2.424,6.918 C 5.655,22.904 5.009,21.703 3.444,19.618 2.924,18.926 2.63,18.392 2.464,17.918 2.218,17.211 2.266,16.639 2.335,15.903 2.382,15.398 2.437,14.817 2.406,14.054 2.363,12.969 1.824,12.025 1.184,11.106 0.424,10.015 -0.478,8.96 -0.872,7.751 -1.578,5.582 -1.269,3.312 -0.513,1.207 -0.364,0.793 -0.187,0.394 0,0"
             style="fill:#63b9e9;fill-opacity:1;fill-rule:nonzero;stroke:none"
             id="path30"
             inkscape:connector-curvature="0" /></g><g
           id="g32"
           transform="translate(168.8538,103.6776)"><path
             d="m 0,0 c -0.006,-0.383 -0.009,-0.602 -0.009,-0.602 l -2.922,0.093 c 0,0 0.01,0.218 0.028,0.601 0.013,0.374 0.032,0.909 0.054,1.55 0.032,1.288 0.031,3.006 -0.042,4.724 -0.069,1.718 -0.209,3.433 -0.347,4.717 -0.075,0.641 -0.138,1.175 -0.181,1.549 -0.049,0.379 -0.077,0.597 -0.077,0.597 l 2.45,0.353 c 0,0 0.034,-0.217 0.095,-0.595 0.058,-0.385 0.14,-0.935 0.239,-1.595 0.185,-1.323 0.387,-3.093 0.516,-4.871 0.132,-1.777 0.191,-3.561 0.2,-4.9 C 0.002,0.951 0.001,0.391 0,0 m -2.375,-17.778 c -0.448,-1.735 -0.964,-3.452 -1.388,-4.728 -0.217,-0.638 -0.399,-1.17 -0.526,-1.542 -0.128,-0.361 -0.201,-0.567 -0.201,-0.567 l -3.46,1.292 c 0,0 0.08,0.203 0.22,0.56 0.131,0.348 0.319,0.846 0.544,1.443 0.442,1.201 0.986,2.821 1.466,4.461 0.978,3.277 1.605,6.646 1.605,6.646 l 3.196,-0.559 c 0,0 -0.542,-3.54 -1.456,-7.006 m -6.484,54.321 c 0,0 1.689,-3.118 3.041,-6.401 0.684,-1.636 1.303,-3.301 1.732,-4.561 0.434,-1.271 0.688,-2.104 0.688,-2.104 l -2.064,-0.618 c 0,0 -0.23,0.851 -0.606,2.077 -0.377,1.238 -0.927,2.876 -1.542,4.49 -1.214,3.238 -2.765,6.337 -2.765,6.337 z m -6.489,7.764 c 0,0 -0.489,0.73 -1.245,1.78 -0.758,1.057 -1.81,2.439 -2.915,3.778 -2.198,2.693 -4.67,5.146 -4.67,5.146 l 0.652,0.671 c 0,0 2.582,-2.402 4.901,-5.064 1.166,-1.324 2.279,-2.695 3.085,-3.746 0.813,-1.055 1.321,-1.764 1.321,-1.764 z m -16.323,17.226 c 0,0 -2.774,2.114 -5.756,3.929 -2.962,1.845 -6.104,3.373 -6.104,3.373 l 0.179,0.372 c 0,0 3.188,-1.475 6.207,-3.276 3.035,-1.768 5.876,-3.847 5.876,-3.847 z m -15.541,16.779 c -1.609,-6.339 -5.285,-11.849 -10.264,-15.784 22.335,-7.572 38.416,-28.696 38.416,-53.589 0,-11.226 -3.286,-21.675 -8.927,-30.471 14.07,-7.478 26.224,-18.19 35.427,-31.204 6.467,12.687 10.119,27.048 10.119,42.265 0,41.559 -27.202,76.76 -64.771,88.783"
             style="fill:#63b9e9;fill-opacity:1;fill-rule:nonzero;stroke:none"
             id="path34"
             inkscape:connector-curvature="0" /></g><g
           id="g36"
           transform="translate(48.8287,165.7616)"><path
             d="m 0,0 c 0,0 2.84,2.079 5.875,3.847 3.019,1.801 6.208,3.276 6.208,3.276 l 0.179,-0.372 c 0,0 -3.143,-1.528 -6.104,-3.373 C 3.176,1.563 0.402,-0.551 0.402,-0.551 Z m -11.762,-12.219 c -1.105,-1.339 -2.156,-2.721 -2.914,-3.778 -0.756,-1.05 -1.245,-1.78 -1.245,-1.78 l -1.129,0.801 c 0,0 0.508,0.709 1.32,1.765 0.806,1.05 1.92,2.421 3.085,3.745 2.32,2.662 4.901,5.065 4.901,5.065 l 0.652,-0.672 c 0,0 -2.472,-2.453 -4.67,-5.146 m -11.897,-20.439 c -0.615,-1.614 -1.165,-3.252 -1.542,-4.49 -0.377,-1.226 -0.607,-2.077 -0.607,-2.077 l -2.063,0.618 c 0,0 0.253,0.833 0.688,2.104 0.429,1.26 1.047,2.925 1.732,4.561 1.352,3.283 3.04,6.401 3.04,6.401 l 1.517,-0.78 c 0,0 -1.552,-3.099 -2.765,-6.337 m -3.121,-54.041 c 0,0 -0.073,0.206 -0.201,0.567 -0.127,0.372 -0.308,0.904 -0.526,1.542 -0.423,1.276 -0.939,2.993 -1.387,4.728 -0.914,3.466 -1.457,7.006 -1.457,7.006 l 3.196,0.559 c 0,0 0.628,-3.369 1.606,-6.646 0.479,-1.64 1.024,-3.26 1.466,-4.461 0.225,-0.597 0.413,-1.095 0.544,-1.443 0.139,-0.356 0.219,-0.56 0.219,-0.56 z m -4.489,24.615 c -0.001,0.391 -0.003,0.951 -0.004,1.621 0.009,1.339 0.068,3.123 0.2,4.9 0.128,1.778 0.33,3.548 0.515,4.871 0.099,0.66 0.182,1.21 0.24,1.595 0.06,0.378 0.095,0.595 0.095,0.595 l 2.449,-0.353 c 0,0 -0.027,-0.218 -0.076,-0.597 -0.044,-0.374 -0.106,-0.908 -0.182,-1.549 -0.137,-1.284 -0.278,-2.999 -0.346,-4.717 -0.073,-1.718 -0.075,-3.436 -0.042,-4.724 0.022,-0.641 0.04,-1.176 0.053,-1.55 0.019,-0.383 0.029,-0.601 0.029,-0.601 l -2.922,-0.093 c 0,0 -0.003,0.219 -0.009,0.602 M 26.206,0.444 C 21.227,4.379 17.551,9.889 15.942,16.228 -21.627,4.204 -48.829,-30.996 -48.829,-72.555 c 0,-15.217 3.652,-29.578 10.12,-42.265 9.203,13.014 21.357,23.726 35.426,31.204 -5.64,8.796 -8.927,19.245 -8.927,30.471 0,24.893 16.081,46.017 38.416,53.589"
             style="fill:#63b9e9;fill-opacity:1;fill-rule:nonzero;stroke:none"
             id="path38"
             inkscape:connector-curvature="0" /></g><g
           id="g40"
           transform="translate(93.2065)"><path
             d="M 0,0 C 32.882,0 61.785,17.029 78.377,42.747 69.508,56.494 57.123,67.759 42.492,75.266 32.122,63.478 16.935,56.029 0,56.029 c -16.935,0 -32.122,7.449 -42.492,19.237 C -57.123,67.759 -69.508,56.494 -78.377,42.747 -61.785,17.029 -32.882,0 0,0"
             style="fill:#63b9e9;fill-opacity:1;fill-rule:nonzero;stroke:none"
             id="path42"
             inkscape:connector-curvature="0" /></g></g></g></g></svg>