<?xml version="1.0" encoding="UTF-8" standalone="no"?>
<!-- Created with Inkscape (http://www.inkscape.org/) -->

<svg
   xmlns:dc="http://purl.org/dc/elements/1.1/"
   xmlns:cc="http://creativecommons.org/ns#"
   xmlns:rdf="http://www.w3.org/1999/02/22-rdf-syntax-ns#"
   xmlns:svg="http://www.w3.org/2000/svg"
   xmlns="http://www.w3.org/2000/svg"
   xmlns:sodipodi="http://sodipodi.sourceforge.net/DTD/sodipodi-0.dtd"
   xmlns:inkscape="http://www.inkscape.org/namespaces/inkscape"
   version="1.1"
   id="svg2"
   xml:space="preserve"
   width="1381.88"
   height="447.98801"
   viewBox="0 0 1381.88 447.98801"
   sodipodi:docname="line.svg"
   inkscape:version="0.92.1 r15371"><metadata
     id="metadata8"><rdf:RDF><cc:Work
         rdf:about=""><dc:format>image/svg+xml</dc:format><dc:type
           rdf:resource="http://purl.org/dc/dcmitype/StillImage" /><dc:title></dc:title></cc:Work></rdf:RDF></metadata><defs
     id="defs6"><clipPath
       clipPathUnits="userSpaceOnUse"
       id="clipPath18"><path
         d="M 0,335.991 H 1036.412 V 0 H 0 Z"
         id="path16"
         inkscape:connector-curvature="0" /></clipPath></defs><sodipodi:namedview
     pagecolor="#ffffff"
     bordercolor="#666666"
     borderopacity="1"
     objecttolerance="10"
     gridtolerance="10"
     guidetolerance="10"
     inkscape:pageopacity="0"
     inkscape:pageshadow="2"
     inkscape:window-width="741"
     inkscape:window-height="480"
     id="namedview4"
     showgrid="false"
     inkscape:zoom="0.28077691"
     inkscape:cx="690.94"
     inkscape:cy="223.994"
     inkscape:window-x="122"
     inkscape:window-y="156"
     inkscape:window-maximized="0"
     inkscape:current-layer="g10" /><g
     id="g10"
     inkscape:groupmode="layer"
     inkscape:label="Vector Smart Object3"
     transform="matrix(1.3333333,0,0,-1.3333333,0,447.988)"><g
       id="g12"><g
         id="g14"
         clip-path="url(#clipPath18)"><g
           id="g20"
           transform="translate(503.7452,93.6857)"><path
             d="m 0,0 c 0,0 -178.136,-19.934 -271.287,-20.012 l -0.002,0.006 c -115.589,-0.792 -210.469,70.972 -215.751,166.543 -1.889,34.165 7.926,66.975 26.546,95.768 -30.498,-39.754 -45.58,-85.954 -42.959,-133.372 2.348,-42.47 18.984,-82.612 48.112,-116.085 48.935,-56.234 126.92,-87.861 211.319,-86.475 l 0.022,-0.059 c 58.293,0 244,13.009 244,13.009 l 532.667,37.645 v 97 z"
             style="fill:#ffcc00;fill-opacity:1;fill-rule:nonzero;stroke:none"
             id="path22"
             inkscape:connector-curvature="0" /></g></g></g></g></svg>